External Loads File
version=1
nRows=85
nColumns=13
Range=5.000000e-03-10 seconds
endheader
time 	forceRightX 	forceRightY 	forceRightZ 	pointRightX 	pointRightY 	pointRightZ 	forceLeftX 	forceLeftY 	forceLeftZ 	pointLeftX 	pointLeftY 	pointLeftZ 		
5.005000 -137.631657 639.371242 -0.000000 0.366252 0.280905 -0.160827 42.812884 -19.180866 -0.000000 0.082698 0.366598 -0.400610
5.010000 -121.022798 651.521558 -0.000000 0.363831 0.270182 -0.160758 36.458264 -30.049654 -0.000000 0.085807 0.377110 -0.400562
5.015000 -102.049446 661.461682 -0.000000 0.360966 0.259692 -0.160907 29.671350 -41.136308 -0.000000 0.089592 0.387696 -0.400705
5.020000 -81.298181 668.456426 -0.000000 0.357269 0.249493 -0.160706 22.661218 -52.252587 -0.000000 0.093975 0.398090 -0.400827
5.025000 -59.432585 671.871773 -0.000000 0.352628 0.239604 -0.160178 15.479353 -63.181061 -0.000000 0.098587 0.408236 -0.400767
5.030000 -37.450700 671.174915 -0.000000 0.347701 0.230125 -0.159944 8.107504 -73.625497 -0.000000 0.103943 0.417968 -0.400794
5.035000 -15.146127 666.049069 -0.000000 0.342230 0.221022 -0.159677 0.405985 -83.226564 -0.000000 0.109759 0.427613 -0.400711
5.040000 6.664545 656.225948 -0.000000 0.336135 0.212281 -0.159457 -7.584976 -91.572856 -0.000000 0.116037 0.436810 -0.400384
5.045000 27.184809 641.608389 -0.000000 0.329624 0.204123 -0.159191 -15.736585 -98.281182 -0.000000 0.122924 0.445421 -0.399843
5.050000 46.361813 622.257114 -0.000000 0.322588 0.196313 -0.158843 -23.995986 -102.971651 -0.000000 0.130020 0.453607 -0.399801
5.055000 64.271501 598.395860 -0.000000 0.315067 0.189192 -0.158580 -32.328979 -105.259892 -0.000000 0.137842 0.461252 -0.400236
5.060000 79.580563 570.637835 -0.000000 0.307145 0.182595 -0.158267 -40.400376 -104.901933 -0.000000 0.145566 0.468284 -0.399951
5.065000 93.386454 539.557573 -0.000000 0.298796 0.176592 -0.158118 -48.217709 -101.646982 -0.000000 0.153831 0.474750 -0.399874
5.070000 105.194542 506.072300 -0.000000 0.290085 0.171214 -0.157780 -55.447673 -95.501460 -0.000000 0.162306 0.480601 -0.399832
5.075000 115.107892 471.085646 -0.000000 0.281089 0.166414 -0.157293 -61.863771 -86.588920 -0.000000 0.170954 0.485812 -0.399876
5.080000 123.370496 435.399239 -0.000000 0.271863 0.162146 -0.157104 -67.274740 -75.134933 -0.000000 0.179748 0.490479 -0.399845
5.085000 130.251438 399.611986 -0.000000 0.262391 0.158522 -0.156881 -71.497604 -61.458035 -0.000000 0.188693 0.494352 -0.399892
5.090000 135.978841 364.064857 -0.000000 0.252760 0.155757 -0.156841 -74.389801 -45.931621 -0.000000 0.197798 0.497715 -0.399929
5.095000 140.352659 329.010344 -0.000000 0.242926 0.153629 -0.156890 -75.859184 -28.997783 -0.000000 0.206687 0.500062 -0.400225
5.100000 143.587676 294.360943 -0.000000 0.233051 0.152219 -0.156976 -75.998992 -10.946629 -0.000000 0.215691 0.501930 -0.400088
5.105000 145.175760 260.235542 -0.000000 0.223220 0.151579 -0.156979 -74.999764 7.850148 -0.000000 0.224455 0.503074 -0.400050
5.110000 144.872284 226.655283 -0.000000 0.213625 0.151677 -0.157164 -73.255804 27.157802 -0.000000 0.232977 0.503593 -0.400006
5.115000 142.747364 193.539344 -0.000000 0.204069 0.152503 -0.157247 -71.261195 46.922542 -0.000000 0.241245 0.503263 -0.399972
5.120000 138.716350 161.071707 -0.000000 0.194728 0.153965 -0.157291 -69.626032 67.138427 -0.000000 0.249252 0.501971 -0.400007
5.125000 132.940757 129.492528 -0.000000 0.185525 0.155930 -0.157315 -69.014731 87.990109 -0.000000 0.256982 0.499894 -0.400223
5.130000 125.627642 99.279359 -0.000000 0.176631 0.158598 -0.157259 -70.184260 109.747517 -0.000000 0.264207 0.496894 -0.400324
5.135000 117.345981 70.756538 -0.000000 0.167922 0.161893 -0.157348 -73.622028 132.903365 -0.000000 0.271169 0.492985 -0.400640
5.140000 108.580234 44.355596 -0.000000 0.159198 0.165921 -0.157882 -79.548342 157.924267 -0.000000 0.278044 0.488225 -0.401044
5.145000 99.607133 20.879017 -0.000000 0.150899 0.170540 -0.158087 -88.411457 184.848302 -0.000000 0.284625 0.482697 -0.401343
5.150000 90.830557 0.775168 -0.000000 0.142827 0.175770 -0.158298 -100.014815 213.626845 -0.000000 0.291045 0.476358 -0.401801
5.155000 82.563359 -15.461762 -0.000000 0.135067 0.181549 -0.158383 -114.111041 243.803969 -0.000000 0.297377 0.469395 -0.402177
5.160000 75.110253 -27.525179 -0.000000 0.127742 0.187904 -0.158337 -130.254398 274.674575 -0.000000 0.303582 0.461816 -0.402518
5.165000 68.702171 -35.447840 -0.000000 0.120656 0.194638 -0.158328 -147.528880 305.551401 -0.000000 0.309987 0.453774 -0.402564
5.170000 63.559451 -39.390557 -0.000000 0.114014 0.201888 -0.158188 -165.565297 335.478921 -0.000000 0.316263 0.445316 -0.402607
5.175000 59.801415 -39.798717 -0.000000 0.107890 0.209574 -0.158004 -183.999308 363.675676 -0.000000 0.322327 0.436480 -0.402588
5.180000 57.418565 -37.312022 -0.000000 0.102190 0.217642 -0.157793 -202.257957 389.716012 -0.000000 0.328228 0.427297 -0.402413
5.185000 56.353185 -32.616124 -0.000000 0.097065 0.226209 -0.157654 -219.912015 413.341828 -0.000000 0.333912 0.417874 -0.402424
5.190000 56.514742 -26.406602 -0.000000 0.092372 0.235028 -0.157513 -236.857667 434.408088 -0.000000 0.338942 0.408204 -0.402495
5.195000 57.684072 -19.548381 -0.000000 0.088227 0.244319 -0.157293 -252.068593 453.624414 -0.000000 0.343745 0.398271 -0.402757
5.200000 59.603000 -12.816771 -0.000000 0.084635 0.253951 -0.157299 -265.194512 471.641537 -0.000000 0.348229 0.387963 -0.402789
5.205000 61.890774 -6.832657 -0.000000 0.081666 0.263725 -0.157260 -276.404220 488.934252 -0.000000 0.352544 0.377531 -0.402798
5.210000 64.038382 -2.194522 -0.000000 0.079219 0.274011 -0.157412 -284.775453 506.526277 -0.000000 0.356312 0.366825 -0.402550
5.215000 65.521506 0.881033 -0.000000 0.077434 0.284362 -0.157534 -291.041531 524.345459 -0.000000 0.359442 0.356025 -0.402821
5.220000 65.840738 2.152219 -0.000000 0.076261 0.294925 -0.157725 -294.535410 542.932616 -0.000000 0.362025 0.345045 -0.403070
5.225000 64.598660 1.584704 -0.000000 0.075805 0.305690 -0.157981 -295.391762 562.245841 -0.000000 0.363966 0.333991 -0.403392
5.230000 61.535942 -0.768696 -0.000000 0.075976 0.316486 -0.158278 -293.896209 582.083788 -0.000000 0.365389 0.322900 -0.403548
5.235000 56.554505 -4.850043 -0.000000 0.076964 0.327550 -0.158732 -289.523016 602.530369 -0.000000 0.366203 0.311778 -0.403633
5.240000 49.740336 -10.315669 -0.000000 0.078385 0.338450 -0.158918 -283.653110 622.575884 -0.000000 0.366423 0.300959 -0.403649
5.245000 41.320629 -17.002879 -0.000000 0.080529 0.349453 -0.159251 -275.174328 642.311261 -0.000000 0.366272 0.290235 -0.404163
5.250000 31.648984 -24.617200 -0.000000 0.083316 0.360280 -0.159521 -264.311239 661.151931 -0.000000 0.364972 0.279689 -0.403612
5.255000 21.071743 -32.964554 -0.000000 0.086846 0.371546 -0.159603 -249.854945 679.086377 -0.000000 0.363249 0.269330 -0.403508
5.260000 10.115022 -41.771868 -0.000000 0.090735 0.381882 -0.159752 -235.012645 694.514225 -0.000000 0.360892 0.259224 -0.403391
5.265000 -1.046552 -51.011752 -0.000000 0.095279 0.392184 -0.159855 -217.260623 708.050493 -0.000000 0.357898 0.249169 -0.403341
5.270000 -12.158926 -60.539424 -0.000000 0.100378 0.402080 -0.159974 -197.565619 719.019074 -0.000000 0.354292 0.239203 -0.403374
5.275000 -23.035205 -70.206870 -0.000000 0.105952 0.411900 -0.160020 -176.495076 726.877617 -0.000000 0.350103 0.229907 -0.403200
5.280000 -33.587683 -79.812789 -0.000000 0.112027 0.421300 -0.160123 -153.996518 731.223974 -0.000000 0.345319 0.221009 -0.403037
5.285000 -43.788282 -89.062271 -0.000000 0.118510 0.430348 -0.160139 -129.805682 731.665756 -0.000000 0.340006 0.212347 -0.402941
5.290000 -53.616261 -97.562020 -0.000000 0.125479 0.439245 -0.160257 -103.783781 727.783366 -0.000000 0.334166 0.204031 -0.402860
5.295000 -62.946714 -104.911205 -0.000000 0.133192 0.447487 -0.160350 -76.798720 719.142676 -0.000000 0.327771 0.196263 -0.402834
5.300000 -71.395369 -110.845327 -0.000000 0.140150 0.455269 -0.160842 -51.512971 705.458015 -0.000000 0.320899 0.188965 -0.402800
5.305000 -79.399622 -114.532531 -0.000000 0.148183 0.462748 -0.161348 -25.234737 687.121980 -0.000000 0.313651 0.182169 -0.402761
5.310000 -86.554985 -115.617176 -0.000000 0.156319 0.469621 -0.161902 -0.488136 664.189172 -0.000000 0.305973 0.175985 -0.402759
5.315000 -92.761926 -113.590067 -0.000000 0.164859 0.475614 -0.162035 22.713948 636.954575 -0.000000 0.297964 0.170391 -0.402660
5.320000 -97.862524 -108.142661 -0.000000 0.173493 0.481243 -0.162103 44.167630 605.512058 -0.000000 0.289704 0.165275 -0.402540
5.325000 -101.761677 -99.166434 -0.000000 0.182436 0.486221 -0.162296 63.871208 569.645205 -0.000000 0.281114 0.160944 -0.402410
5.330000 -104.359330 -86.822002 -0.000000 0.191673 0.490660 -0.162443 81.708848 529.045175 -0.000000 0.272305 0.157159 -0.402283
5.335000 -105.484788 -71.614470 -0.000000 0.201008 0.494340 -0.162775 97.093218 483.788384 -0.000000 0.263261 0.154216 -0.402151
5.340000 -105.075065 -54.195999 -0.000000 0.210152 0.497532 -0.162877 109.652059 434.467286 -0.000000 0.254048 0.151822 -0.402007
5.345000 -103.241740 -35.125511 -0.000000 0.219403 0.500122 -0.163111 119.573421 381.958022 -0.000000 0.244674 0.150209 -0.401858
5.350000 -100.110372 -15.063587 -0.000000 0.228605 0.502065 -0.163473 126.372623 327.595918 -0.000000 0.235270 0.149432 -0.401599
5.355000 -95.969353 5.459924 -0.000000 0.237594 0.503338 -0.163720 129.838168 272.928470 -0.000000 0.225894 0.149335 -0.401278
5.360000 -91.229056 26.102152 -0.000000 0.246410 0.503913 -0.164093 130.176378 219.514365 -0.000000 0.216549 0.150017 -0.400976
5.365000 -86.365514 46.566069 -0.000000 0.254943 0.503656 -0.164127 127.609218 168.932975 -0.000000 0.207308 0.151273 -0.400757
5.370000 -81.864405 66.739741 -0.000000 0.263210 0.502713 -0.163984 122.647374 122.464795 -0.000000 0.198193 0.153224 -0.400616
5.375000 -78.178546 86.688129 -0.000000 0.271186 0.501061 -0.164276 115.846649 81.077853 -0.000000 0.189213 0.155702 -0.400525
5.380000 -75.619770 106.733544 -0.000000 0.278908 0.498140 -0.164275 107.795826 45.352512 -0.000000 0.180418 0.158824 -0.400402
5.385000 -74.454944 127.331466 -0.000000 0.286394 0.494779 -0.164270 98.953461 15.702592 -0.000000 0.171792 0.162689 -0.400127
5.390000 -74.902816 149.049876 -0.000000 0.293522 0.490641 -0.164232 89.749812 -7.645468 -0.000000 0.163388 0.167125 -0.399879
5.395000 -77.077915 172.486085 -0.000000 0.300403 0.485779 -0.164151 80.599142 -24.695391 -0.000000 0.155257 0.172014 -0.399641
5.400000 -81.032473 198.108676 -0.000000 0.306685 0.480054 -0.164108 71.879025 -35.682280 -0.000000 0.147184 0.177507 -0.399474
5.405000 -86.616168 226.176942 -0.000000 0.313082 0.473686 -0.163943 63.896799 -41.135697 -0.000000 0.139558 0.183585 -0.399219
5.410000 -94.092750 256.390977 -0.000000 0.318962 0.466632 -0.163774 57.000562 -41.685453 -0.000000 0.132271 0.190024 -0.399177
5.415000 -103.177797 288.270003 -0.000000 0.324582 0.458967 -0.163590 51.372828 -38.321440 -0.000000 0.125295 0.196842 -0.399155
5.420000 -113.265997 321.159389 -0.000000 0.330239 0.450676 -0.163844 47.094906 -32.154225 -0.000000 0.118636 0.204223 -0.399296
5.425000 -124.413424 354.035541 -0.000000 0.335717 0.441829 -0.163946 44.272697 -24.169859 -0.000000 0.112355 0.211866 -0.399514
